<svg xmlns="http://www.w3.org/2000/svg" width="512" height="512" viewBox="0 0 512 512" version="1.1">
	<path d="M 43 94.500 L 43 138 220.500 138 L 398 138 398 94.500 L 398 51 220.500 51 L 43 51 43 94.500 M 83.227 94.750 L 83.500 112.500 91.750 112.790 L 100 113.081 100 95.040 L 100 77 91.477 77 L 82.954 77 83.227 94.750 M 133 95.040 L 133 113.081 141.250 112.790 L 149.500 112.500 149.773 94.750 L 150.046 77 141.523 77 L 133 77 133 95.040 M 182 95.040 L 182 113.081 190.250 112.790 L 198.500 112.500 198.773 94.750 L 199.046 77 190.523 77 L 182 77 182 95.040 M 274 94.500 L 274 103 285 103 L 296 103 296 94.500 L 296 86 285 86 L 274 86 274 94.500 M 327 94.500 L 327 103 338 103 L 349 103 349 94.500 L 349 86 338 86 L 327 86 327 94.500 M 43 190 L 43 225 173.829 225 L 304.658 225 317.936 215.048 L 331.215 205.095 336.857 209.241 C 339.961 211.521, 345.940 216, 350.143 219.193 L 357.787 225 377.893 225 L 398 225 398 190 L 398 155 220.500 155 L 43 155 43 190 M 83 190 L 83 208 91.500 208 L 100 208 100 190 L 100 172 91.500 172 L 83 172 83 190 M 133 190 L 133 208 140.921 208 C 148.763 208, 148.846 207.973, 149.384 205.250 C 149.683 203.738, 149.884 195.637, 149.830 187.250 L 149.733 172 141.367 172 L 133 172 133 190 M 182 190 L 182 208 190.500 208 L 199 208 199 190 L 199 172 190.500 172 L 182 172 182 190 M 274 190 L 274 198 285 198 L 296 198 296 190 L 296 182 285 182 L 274 182 274 190 M 327 190 L 327 198 338 198 L 349 198 349 190 L 349 182 338 182 L 327 182 327 190 M 261.935 278.250 L 193.500 329.500 217.250 329.768 L 241 330.036 241 395.518 L 241 461 268.500 461 L 296 461 296 420.500 L 296 380 330.989 380 L 365.977 380 366.239 420.250 L 366.500 460.500 393.750 460.766 L 421 461.032 421 395.516 L 421 330 444.583 330 C 458.457 330, 468.029 329.622, 467.833 329.083 C 467.650 328.579, 445.675 311.851, 419 291.909 C 344.945 236.549, 332.023 227, 331.163 227 C 330.727 227, 299.574 250.063, 261.935 278.250 M 43 285.500 L 43 329 104.250 328.981 L 165.500 328.963 220.500 287.853 C 250.750 265.242, 276.850 245.680, 278.500 244.382 L 281.500 242.022 162.250 242.011 L 43 242 43 285.500 M 381.083 242.332 C 381.313 242.514, 385.212 245.459, 389.750 248.877 L 398 255.090 398 248.545 L 398 242 389.333 242 C 384.567 242, 380.854 242.149, 381.083 242.332 M 83.667 267.667 C 83.300 268.033, 83 276.133, 83 285.667 L 83 303 91.500 303 L 100 303 100 285.625 L 100 268.250 96.875 267.625 C 92.746 266.799, 84.508 266.825, 83.667 267.667 M 134.250 267.642 C 133.318 268.033, 133 272.597, 133 285.583 L 133 303 141.430 303 L 149.859 303 149.680 285.250 L 149.500 267.500 142.500 267.309 C 138.650 267.203, 134.938 267.353, 134.250 267.642 M 183.696 267.823 C 182.178 268.113, 182 269.980, 182 285.573 L 182 303 190.523 303 L 199.046 303 198.773 285.250 L 198.500 267.500 191.946 267.500 C 188.342 267.500, 184.629 267.645, 183.696 267.823" stroke="none" fill="black" fill-rule="evenodd"/>
</svg>